<svg xmlns="http://www.w3.org/2000/svg" viewBox="0 0 48 48" width="48" height="48">
  <defs>
    <radialGradient id="rg" cx="15%" cy="95%" r="125%">
      <stop offset="0%" stop-color="#fee140"/>
      <stop offset="25%" stop-color="#fa709a"/>
      <stop offset="50%" stop-color="#f64f59"/>
      <stop offset="75%" stop-color="#c471ed"/>
      <stop offset="100%" stop-color="#12c2e9"/>
    </radialGradient>
  </defs>
  <rect width="48" height="48" rx="12" fill="url(#rg)"/>
  <path fill="#FFFFFF" d="M24,14c3.26,0,3.67,0.01,4.95,0.07,1.19,0.05,1.83,0.25,2.26,0.42,0.57,0.22,0.98,0.49,1.41,0.91,0.42,0.42,0.69,0.84,0.91,1.41,0.17,0.43,0.37,1.07,0.42,2.26,0.06,1.28,0.07,1.69,0.07,4.95s-0.01,3.67-0.07,4.95c-0.05,1.19-0.25,1.83-0.42,2.26-0.22,0.57-0.49,0.98-0.91,1.41-0.42,0.42-0.84,0.69-1.41,0.91-0.43,0.17-1.07,0.37-2.26,0.42-1.28,0.06-1.69,0.07-4.95,0.07s-3.67-0.01-4.95-0.07c-1.19-0.05-1.83-0.25-2.26-0.42-0.57-0.22-0.98-0.49-1.41-0.91-0.42-0.42-0.69-0.84-0.91-1.41-0.17-0.43-0.37-1.07-0.42-2.26C14.01,27.67,14,27.26,14,24s0.01-3.67,0.07-4.95c0.05-1.19,0.25-1.83,0.42-2.26,0.22-0.57,0.49-0.98,0.91-1.41,0.42-0.42,0.84-0.69,1.41-0.91,0.43-0.17,1.07-0.37,2.26-0.42C20.33,14.01,20.74,14,24,14m0-2c-3.32,0-3.73,0.01-5.04,0.07-1.3,0.06-2.19,0.27-2.97,0.57-0.81,0.31-1.5,0.73-2.19,1.41-0.68,0.69-1.11,1.38-1.41,2.19-0.31,0.78-0.51,1.67-0.57,2.97C11.75,20.27,11.74,20.68,11.74,24s0.01,3.73,0.07,5.04c0.06,1.3,0.27,2.19,0.57,2.97,0.31,0.81,0.73,1.5,1.41,2.19,0.69,0.68,1.38,1.11,2.19,1.41,0.78,0.31,1.67,0.51,2.97,0.57,1.31,0.06,1.72,0.07,5.04,0.07s3.73-0.01,5.04-0.07c1.3-0.06,2.19-0.27,2.97-0.57,0.81-0.31,1.5-0.73,2.19-1.41,0.68-0.69,1.11-1.38,1.41-2.19,0.31-0.78,0.51-1.67,0.57-2.97,0.06-1.31,0.07-1.72,0.07-5.04s-0.01-3.73-0.07-5.04c-0.06-1.3-0.27-2.19-0.57-2.97-0.31-0.81-0.73-1.5-1.41-2.19-0.69-0.68-1.38-1.11-2.19-1.41-0.78-0.31-1.67-0.51-2.97-0.57C27.73,12.01,27.32,12,24,12Z"/>
  <path fill="#FFFFFF" d="M24,17.84A6.16,6.16,0,1,0,30.16,24,6.16,6.16,0,0,0,24,17.84Zm0,10.32A4.16,4.16,0,1,1,28.16,24,4.16,4.16,0,0,1,24,28.16Z"/>
  <circle fill="#FFFFFF" cx="30.8" cy="17.2" r="1.44"/>
</svg>
